<mxfile host="app.diagrams.net" agent="Mozilla/5.0 (Windows NT 10.0; Win64; x64) AppleWebKit/537.36 (KHTML, like Gecko) Chrome/137.0.0.0 Safari/537.36" version="27.0.6">
  <diagram name="Page-1" id="PDEx4enYC63QLxcAZnOA">
    <mxGraphModel dx="1209" dy="817" grid="1" gridSize="10" guides="1" tooltips="1" connect="1" arrows="1" fold="1" page="1" pageScale="1" pageWidth="827" pageHeight="1169" math="0" shadow="0">
      <root>
        <mxCell id="0" />
        <mxCell id="1" parent="0" />
        <mxCell id="9dPkjzbFU4MvsIIqfuzc-8" value="" style="whiteSpace=wrap;html=1;aspect=fixed;labelBackgroundColor=none;fillColor=#FAE5C7;strokeColor=#0F8B8D;fontColor=#143642;" vertex="1" parent="1">
          <mxGeometry x="45" y="20" width="790" height="790" as="geometry" />
        </mxCell>
        <mxCell id="9dPkjzbFU4MvsIIqfuzc-1" value="add book" style="ellipse;whiteSpace=wrap;html=1;labelBackgroundColor=none;fillColor=#FAE5C7;strokeColor=#0F8B8D;fontColor=#143642;" vertex="1" parent="1">
          <mxGeometry x="300" y="30" width="120" height="80" as="geometry" />
        </mxCell>
        <mxCell id="9dPkjzbFU4MvsIIqfuzc-2" value="delete book" style="ellipse;whiteSpace=wrap;html=1;labelBackgroundColor=none;fillColor=#FAE5C7;strokeColor=#0F8B8D;fontColor=#143642;" vertex="1" parent="1">
          <mxGeometry x="300" y="130" width="120" height="80" as="geometry" />
        </mxCell>
        <mxCell id="9dPkjzbFU4MvsIIqfuzc-3" value="issue book" style="ellipse;whiteSpace=wrap;html=1;labelBackgroundColor=none;fillColor=#FAE5C7;strokeColor=#0F8B8D;fontColor=#143642;" vertex="1" parent="1">
          <mxGeometry x="300" y="230" width="120" height="80" as="geometry" />
        </mxCell>
        <mxCell id="9dPkjzbFU4MvsIIqfuzc-4" value="issue details" style="ellipse;whiteSpace=wrap;html=1;labelBackgroundColor=none;fillColor=#FAE5C7;strokeColor=#0F8B8D;fontColor=#143642;" vertex="1" parent="1">
          <mxGeometry x="300" y="330" width="120" height="80" as="geometry" />
        </mxCell>
        <mxCell id="9dPkjzbFU4MvsIIqfuzc-5" value="manage members" style="ellipse;whiteSpace=wrap;html=1;labelBackgroundColor=none;fillColor=#FAE5C7;strokeColor=#0F8B8D;fontColor=#143642;" vertex="1" parent="1">
          <mxGeometry x="300" y="430" width="120" height="80" as="geometry" />
        </mxCell>
        <mxCell id="9dPkjzbFU4MvsIIqfuzc-6" value="search book" style="ellipse;whiteSpace=wrap;html=1;labelBackgroundColor=none;fillColor=#FAE5C7;strokeColor=#0F8B8D;fontColor=#143642;" vertex="1" parent="1">
          <mxGeometry x="300" y="520" width="120" height="80" as="geometry" />
        </mxCell>
        <mxCell id="9dPkjzbFU4MvsIIqfuzc-9" value="Actor" style="shape=umlActor;verticalLabelPosition=bottom;verticalAlign=top;html=1;labelBackgroundColor=none;fillColor=#FAE5C7;strokeColor=#0F8B8D;fontColor=#143642;" vertex="1" parent="1">
          <mxGeometry x="10" y="250" width="30" height="60" as="geometry" />
        </mxCell>
        <mxCell id="9dPkjzbFU4MvsIIqfuzc-10" value="Actor" style="shape=umlActor;verticalLabelPosition=bottom;verticalAlign=top;html=1;labelBackgroundColor=none;fillColor=#FAE5C7;strokeColor=#0F8B8D;fontColor=#143642;" vertex="1" parent="1">
          <mxGeometry x="750" y="170" width="30" height="60" as="geometry" />
        </mxCell>
        <mxCell id="9dPkjzbFU4MvsIIqfuzc-13" value="" style="endArrow=none;html=1;rounded=0;entryX=0;entryY=1;entryDx=0;entryDy=0;exitX=0;exitY=0.5;exitDx=0;exitDy=0;labelBackgroundColor=none;strokeColor=#A8201A;fontColor=default;" edge="1" parent="1" source="9dPkjzbFU4MvsIIqfuzc-3" target="9dPkjzbFU4MvsIIqfuzc-1">
          <mxGeometry width="50" height="50" relative="1" as="geometry">
            <mxPoint x="380" y="360" as="sourcePoint" />
            <mxPoint x="430" y="310" as="targetPoint" />
            <Array as="points">
              <mxPoint x="30" y="280" />
            </Array>
          </mxGeometry>
        </mxCell>
        <mxCell id="9dPkjzbFU4MvsIIqfuzc-14" value="" style="endArrow=none;html=1;rounded=0;labelBackgroundColor=none;strokeColor=#A8201A;fontColor=default;" edge="1" parent="1" source="9dPkjzbFU4MvsIIqfuzc-8" target="9dPkjzbFU4MvsIIqfuzc-4">
          <mxGeometry width="50" height="50" relative="1" as="geometry">
            <mxPoint x="380" y="360" as="sourcePoint" />
            <mxPoint x="430" y="310" as="targetPoint" />
            <Array as="points">
              <mxPoint x="30" y="290" />
            </Array>
          </mxGeometry>
        </mxCell>
        <mxCell id="9dPkjzbFU4MvsIIqfuzc-15" value="" style="endArrow=none;html=1;rounded=0;entryX=0.307;entryY=0.738;entryDx=0;entryDy=0;entryPerimeter=0;labelBackgroundColor=none;strokeColor=#A8201A;fontColor=default;" edge="1" parent="1" source="9dPkjzbFU4MvsIIqfuzc-5" target="9dPkjzbFU4MvsIIqfuzc-10">
          <mxGeometry width="50" height="50" relative="1" as="geometry">
            <mxPoint x="380" y="360" as="sourcePoint" />
            <mxPoint x="430" y="310" as="targetPoint" />
            <Array as="points">
              <mxPoint x="760" y="220" />
            </Array>
          </mxGeometry>
        </mxCell>
        <mxCell id="9dPkjzbFU4MvsIIqfuzc-16" value="" style="endArrow=none;html=1;rounded=0;entryX=0;entryY=0.5;entryDx=0;entryDy=0;labelBackgroundColor=none;strokeColor=#A8201A;fontColor=default;" edge="1" parent="1" source="9dPkjzbFU4MvsIIqfuzc-6" target="9dPkjzbFU4MvsIIqfuzc-2">
          <mxGeometry width="50" height="50" relative="1" as="geometry">
            <mxPoint x="380" y="360" as="sourcePoint" />
            <mxPoint x="430" y="310" as="targetPoint" />
            <Array as="points">
              <mxPoint x="30" y="300" />
            </Array>
          </mxGeometry>
        </mxCell>
        <mxCell id="9dPkjzbFU4MvsIIqfuzc-19" value="add member" style="ellipse;whiteSpace=wrap;html=1;labelBackgroundColor=none;fillColor=#FAE5C7;strokeColor=#0F8B8D;fontColor=#143642;" vertex="1" parent="1">
          <mxGeometry x="300" y="610" width="120" height="80" as="geometry" />
        </mxCell>
        <mxCell id="9dPkjzbFU4MvsIIqfuzc-20" value="view member" style="ellipse;whiteSpace=wrap;html=1;labelBackgroundColor=none;fillColor=#FAE5C7;strokeColor=#0F8B8D;fontColor=#143642;" vertex="1" parent="1">
          <mxGeometry x="310" y="710" width="120" height="80" as="geometry" />
        </mxCell>
        <mxCell id="9dPkjzbFU4MvsIIqfuzc-24" value="" style="endArrow=none;html=1;rounded=0;labelBackgroundColor=none;strokeColor=#A8201A;fontColor=default;" edge="1" parent="1" target="9dPkjzbFU4MvsIIqfuzc-10">
          <mxGeometry width="50" height="50" relative="1" as="geometry">
            <mxPoint x="410" y="630" as="sourcePoint" />
            <mxPoint x="460" y="580" as="targetPoint" />
          </mxGeometry>
        </mxCell>
        <mxCell id="9dPkjzbFU4MvsIIqfuzc-25" value="" style="endArrow=none;html=1;rounded=0;exitX=0.341;exitY=0.738;exitDx=0;exitDy=0;exitPerimeter=0;entryX=1.008;entryY=0.355;entryDx=0;entryDy=0;entryPerimeter=0;labelBackgroundColor=none;strokeColor=#A8201A;fontColor=default;" edge="1" parent="1" source="9dPkjzbFU4MvsIIqfuzc-10" target="9dPkjzbFU4MvsIIqfuzc-20">
          <mxGeometry width="50" height="50" relative="1" as="geometry">
            <mxPoint x="380" y="430" as="sourcePoint" />
            <mxPoint x="430" y="380" as="targetPoint" />
          </mxGeometry>
        </mxCell>
      </root>
    </mxGraphModel>
  </diagram>
</mxfile>
